{"title":"The Rocketeer(1991)MPEG-4[DaScubaDude]","uid":15337251,"size":1223931497,"categoryP":"video","categoryS":"movies","magnet":"?xt=urn:btih:8006572a8491567869bc4c57fa62721aaf136da1&amp;dn=The+Rocketeer%281991%29MPEG-4%5BDaScubaDude%5D&amp;tr=udp%3A%2F%2Ftracker.leechers-paradise.org%3A6969&amp;tr=udp%3A%2F%2Fzer0day.ch%3A1337&amp;tr=udp%3A%2F%2Fopen.demonii.com%3A1337&amp;tr=udp%3A%2F%2Ftracker.coppersurfer.tk%3A6969&amp;tr=udp%3A%2F%2Fexodus.desync.com%3A6969","seeders":1,"leechers":0,"uploader":"dascuba","files":1,"time":1468792984,"description":"The Rocketeer (1991)\r\nPG | 1h 48min | Action, Adventure, Comedy | 21 June 1991 (USA)\r\nA young pilot stumbles onto a prototype jetpack that allows him to become a high flying masked hero.\r\nDirector: Joe Johnston\r\nWriters: Dave Stevens (graphic novel &quot;The Rocketeer&quot;), Danny Bilson (story) | 4 more credits »\r\nStars: Billy Campbell, Jennifer Connelly, Alan Arkin \r\n\r\nGeneral\r\nComplete name                            : The RocketeerROCKETEER_Title1.mp4\r\nFormat                                   : MPEG-4\r\nFormat profile                           : Base Media\r\nCodec ID                                 : isom (isom/iso2/avc1/mp41)\r\nFile size                                : 1.14 GiB\r\nDuration                                 : 1h 48mn\r\nOverall bit rate mode                    : Variable\r\nOverall bit rate                         : 1 505 Kbps\r\nMovie name                               : ROCKETEER\r\nWriting application                      : Lavf54.6.100\r\n\r\nVideo\r\nID                                       : 1\r\nFormat                                   : AVC\r\nFormat/Info                              : Advanced Video Codec\r\nFormat profile                           :   \r\nFormat settings, CABAC                   : No\r\nFormat settings, ReFrames                : 6 frames\r\nCodec ID                                 : avc1\r\nCodec ID/Info                            : Advanced Video Coding\r\nDuration                                 : 1h 48mn\r\nBit rate                                 : 1 214 Kbps\r\nWidth                                    : 720 pixels\r\nHeight                                   : 540 pixels\r\nDisplay aspect ratio                     : 4:3\r\nFrame rate mode                          : Constant\r\nFrame rate                               : 29.970 (30000/1001) fps\r\nColor space                              : YUV\r\nChroma subsampling                       : 4:2:0\r\nBit depth                                : 8 bits\r\nScan type                                : Progressive\r\nBits/(Pixel*Frame)                       : 0.104\r\nStream size                              : 941 MiB (81%)\r\n\r\nAudio\r\nID                                       : 2\r\nFormat                                   : AAC\r\nFormat/Info                              : Advanced Audio Codec\r\nFormat profile                           : LC\r\nCodec ID                                 : 40\r\nDuration                                 : 1h 48mn\r\nBit rate mode                            : Variable\r\nBit rate                                 : 288 Kbps\r\nMaximum bit rate                         : 296 Kbps\r\nChannel(s)                               : 2 channels\r\nChannel(s)_Original                      : 6 channels\r\nChannel positions                        : Front: L C R, Side: L R, LFE\r\nSampling rate                            : 44.1 KHz\r\nFrame rate                               : 43.066 fps (1024 spf)\r\nCompression mode                         : Lossy\r\nStream size                              : 221 MiB (19%)\r\nDefault                                  : Yes\r\nAlternate group                          : 1","torrent":{"xt":"urn:btih:8006572a8491567869bc4c57fa62721aaf136da1","amp;dn":"The+Rocketeer%281991%29MPEG-4%5BDaScubaDude%5D","amp;tr":["udp%3A%2F%2Ftracker.leechers-paradise.org%3A6969","udp%3A%2F%2Fzer0day.ch%3A1337","udp%3A%2F%2Fopen.demonii.com%3A1337","udp%3A%2F%2Ftracker.coppersurfer.tk%3A6969","udp%3A%2F%2Fexodus.desync.com%3A6969"],"infoHash":"8006572a8491567869bc4c57fa62721aaf136da1","infoHashBuffer":{"type":"Buffer","data":[128,6,87,42,132,145,86,120,105,188,76,87,250,98,114,26,175,19,109,161]},"announce":[],"urlList":[]}}